# xmcd CD database file generated by OrangeCD 6.2
#
# Track frame offsets:
#	150
#	20405
#	36542
#	56050
#	74422
#	94857
#	114115
#	132090
#	159265
#	179120
#	196977
#
# Disc length: 2861 seconds
#
# Revision: 2
# Processed by: cddbd v1.5.2PL0 Copyright (c) Steve Scherf et al.
# Submitted via: OrangeCD 6.2
#
DISCID=980b2b0b
DTITLE=Peter Belli - Talisman
DYEAR=1997
DGENRE=Rock
TTITLE0=Ude af fokus
TTITLE1=I stjerners sted
TTITLE2=Tommy and Tanja
TTITLE3=Venter på dig her
TTITLE4=Talisman
TTITLE5=Intet nyt under solen
TTITLE6=En grå gammel spurv
TTITLE7=Sex i det 21. århundrede
TTITLE8=Til verden ender
TTITLE9=Jævndøgn
TTITLE10=I've Been Loving You Too Long
EXTD=
EXTT0=
EXTT1=
EXTT2=
EXTT3=
EXTT4=
EXTT5=
EXTT6=
EXTT7=
EXTT8=
EXTT9=
EXTT10=
PLAYORDER=
